<?xml version="1.0" encoding="utf-8"?>
<!-- Generator: Adobe Illustrator 21.0.2, SVG Export Plug-In . SVG Version: 6.00 Build 0)  -->
<svg version="1.1" id="Capa_1" xmlns="http://www.w3.org/2000/svg" xmlns:xlink="http://www.w3.org/1999/xlink" x="0px" y="0px"
	 width="1280px" height="170px" viewBox="0 0 1280 170" style="enable-background:new 0 0 1280 170;" xml:space="preserve">
<style type="text/css">
	.st0{fill:#303031;}
</style>
<g id="XMLID_484_">
	<rect id="XMLID_666_" x="1054.8" y="143.8" class="st0" width="11.2" height="31.7"/>
	<rect id="XMLID_665_" x="530.4" y="496.4" class="st0" width="11.2" height="31.7"/>
	<rect id="XMLID_664_" x="1134.5" y="71" class="st0" width="11.2" height="31.7"/>
	<path id="XMLID_663_" class="st0" d="M1265.9,409.6c-1.7,2.2-3,4.8-3.9,7.8c-0.9,2.9-1.3,6.1-1.3,9.4c0,2.9,0.4,5.7,1.1,8.5
		c0.7,2.8,1.9,5.3,3.4,7.5c1.5,2.2,3.5,4,5.8,5.3c2.3,1.3,5.1,2,8.3,2c0.5,0,1.1,0,1.6-0.1v-11.6c-0.9,0.3-1.8,0.5-2.9,0.5
		c-1.6,0-2.9-0.4-4-1.1c-1.1-0.7-1.9-1.7-2.5-2.8c-0.6-1.1-1.1-2.4-1.3-3.7c-0.3-1.4-0.4-2.7-0.4-4c0-3.9,0.8-7,2.5-9.6
		c1.7-2.5,4.6-3.9,8.7-4.2v-11.2c-3.3,0-6.3,0.7-8.8,2C1269.8,405.6,1267.6,407.4,1265.9,409.6z"/>
	<rect id="XMLID_662_" x="1.6" y="320" class="st0" width="11.2" height="31.7"/>
	<path id="XMLID_661_" class="st0" d="M1193.7,328.9c0.5,1.1,0.8,2.4,0.8,4c0,1.2-0.2,2.4-0.7,3.5c-0.5,1.2-1.2,2.2-2.3,3.1
		c-1.1,0.9-2.5,1.6-4.2,2.2c-1.7,0.6-3.8,0.8-6.2,0.8c-2.3,0-4.4-0.3-6.3-0.8c-1.9-0.5-3.7-1.3-5.1-2.4c-1.5-1.1-2.6-2.5-3.5-4.2
		c-0.8-1.7-1.2-3.8-1.2-6.2h-11.2c0.1,3.9,0.8,7.3,2.2,10.2c1.4,2.9,3.3,5.2,5.7,7.1c2.4,1.8,5.2,3.2,8.4,4.1
		c3.2,0.9,6.6,1.3,10.3,1.3c3.1,0,6.2-0.4,9.3-1.1c3-0.7,5.7-1.9,8.1-3.5c2.4-1.6,4.3-3.7,5.8-6.2c1.5-2.5,2.2-5.6,2.2-9.2
		c0-0.9-0.1-1.8-0.2-2.7H1193.7z"/>
	<path id="XMLID_660_" class="st0" d="M13.3,17.6c-0.3-0.9-0.5-1.8-0.5-2.9c0-1.6,0.4-2.9,1.1-4c0.7-1.1,1.7-1.9,2.8-2.5
		c1.1-0.6,2.4-1.1,3.7-1.3c1.4-0.3,2.7-0.4,4-0.4c3.9,0,7,0.8,9.6,2.5c2.5,1.7,3.9,4.6,4.2,8.7h11.2c0-3.3-0.6-6.3-2-8.8
		c-1.3-2.5-3.1-4.7-5.3-6.4c-2.2-1.7-4.8-3-7.8-3.9c-2.9-0.9-6.1-1.3-9.4-1.3c-2.9,0-5.7,0.4-8.5,1.1C13.7-0.8,11.2,0.3,9,1.8
		C6.8,3.4,5,5.3,3.6,7.7c-1.3,2.4-2,5.1-2,8.3c0,0.5,0,1.1,0.1,1.6H13.3z"/>
	<path id="XMLID_659_" class="st0" d="M376.9,588c-1-1.5-2.3-2.8-3.9-3.9c-1.6-1.1-3.4-2-5.4-2.7c-0.8-0.2-2.2-0.6-4.2-1.1
		c-1.9-0.5-3.9-1-5.9-1.6c-2-0.5-3.8-1-5.5-1.5c-1.6-0.4-2.6-0.7-2.8-0.8c-2.3-0.7-4.1-1.6-5.5-2.9c-0.7-0.7-1.3-1.4-1.6-2.4h-11.6
		c0.1,1.1,0.3,2.2,0.6,3.3c0.4,1.6,1.2,3.1,2.3,4.6c1.1,1.4,2.5,2.7,4.3,3.9c1.8,1.2,4.1,2.1,6.8,2.8c4.4,1.2,8.1,2.2,11.1,2.9
		c3,0.7,5.6,1.5,7.9,2.4c1.3,0.5,2.5,1.3,3.6,2.5c0.4,0.4,0.7,0.9,0.9,1.4v0h11.7c-0.1-0.8-0.3-1.5-0.5-2.3
		C378.7,591,377.9,589.4,376.9,588z"/>
	<polygon id="XMLID_658_" class="st0" points="1046.1,484.4 1046.1,548.2 1056.7,548.2 1056.7,501.3 1057,501.3 1071.9,525.5 
		1071.9,507.1 1057.9,484.4 	"/>
	<polygon id="XMLID_657_" class="st0" points="550,116.2 539.4,116.2 539.4,163.2 539.2,163.2 524.1,138.9 524.1,157.2 538.2,180 
		550,180 	"/>
	<polygon id="XMLID_656_" class="st0" points="262.2,23.6 273.3,23.6 273.3,6.9 308.1,6.9 308.1,-2.7 262.2,-2.7 	"/>
	<polygon id="XMLID_655_" class="st0" points="122.3,435.3 86.9,435.3 86.9,416.6 119,416.6 119,407.5 86.9,407.5 75.8,407.5 
		75.8,444.9 122.3,444.9 	"/>
	<rect id="XMLID_654_" x="746.3" y="417.1" class="st0" width="11.2" height="26.1"/>
	<path id="XMLID_653_" class="st0" d="M1005.8,105.5h16.4c0.9,0,1.8,0.1,2.6,0.1h0.1V97c-0.3,0-0.6,0-0.9,0h-18.3V77.1h18.1
		c0.4,0,0.7,0,1.1,0V68h-30.3v37.6h11.2V105.5z"/>
	<path id="XMLID_652_" class="st0" d="M494.6,578.1c0-2.5-0.3-4.6-0.9-6.2c-0.6-1.7-1.4-3-2.4-4.1c-1-1-2-1.8-3.1-2.3
		c-1.1-0.5-2.1-0.8-3.1-0.9v-0.2c0.5-0.2,1.4-0.5,2.5-1.1c1.2-0.5,2.3-1.4,3.5-2.6c1.2-1.2,2.2-2.8,3.1-4.8c0.9-2,1.3-4.5,1.3-7.5
		c0-5.4-1.8-9.6-5.3-12.7c-3.5-3-8.8-4.6-15.8-4.6h-0.1v9.1c1.1,0,2.1,0.1,3.1,0.3c1.3,0.2,2.5,0.7,3.6,1.4c1,0.7,1.9,1.7,2.5,3
		c0.6,1.3,0.9,2.9,0.9,4.9c0,3.4-0.9,5.9-2.8,7.6c-1.7,1.6-4.1,2.4-7.2,2.5v8.7h-0.1c1.4,0.2,2.6,0.4,3.7,0.8
		c1.6,0.7,2.9,1.7,3.9,3.1c0.9,1.4,1.6,3.2,2,5.3c0.4,2.1,0.5,4.6,0.5,7.5c0,1.6,0.1,3.1,0.2,4.8c0.1,1.7,0.6,3.2,1.5,4.6h12
		c-1.2-1.3-2.1-3.5-2.6-6.6C494.8,585.3,494.6,581.9,494.6,578.1z"/>
	<path id="XMLID_651_" class="st0" d="M95.2,91.5l1.7,7.5h7.1V65.4H76.9l0,0v8.5h17c-0.1,2.7-0.5,5.1-1.2,7.3
		c-0.8,2.2-1.9,4.1-3.4,5.6c-1.5,1.5-3.4,2.7-5.6,3.5c-2,0.7-4.2,1.1-6.7,1.1v9.1c3.5-0.1,6.6-0.7,9.4-1.9
		C89.3,97.2,92.3,94.9,95.2,91.5z"/>
	<path id="XMLID_650_" class="st0" d="M599.1,102.3c0.7-2.9,1.9-5.5,3.4-7.8c1.5-2.3,3.6-4.1,6-5.5c2.5-1.4,5.4-2.1,8.8-2.1
		c2,0,4,0.3,5.8,0.8c1.8,0.5,3.5,1.3,5,2.4c1.5,1.1,2.7,2.4,3.7,4c1,1.6,1.6,3.4,1.9,5.5h10.9c-0.4-3.6-1.4-6.7-3-9.5
		c-1.6-2.7-3.6-5-6.1-6.8c-2.4-1.8-5.2-3.2-8.3-4.1c-3.1-0.9-6.4-1.4-9.9-1.4c-4.8,0-9,0.9-12.8,2.7c-3.8,1.8-7,4.2-9.6,7.2
		c-2.6,3-4.6,6.6-6,10.6c-1.2,3.5-1.9,7.3-2,11.2h11.1C598.2,107.1,598.5,104.7,599.1,102.3z"/>
	<path id="XMLID_649_" class="st0" d="M534.3,344c-2.5-1.4-4.5-3.2-6-5.5c-1.5-2.3-2.7-4.9-3.4-7.8c-0.7-2.9-1.1-5.9-1.1-8.9
		c0-0.6,0-1.1,0-1.7h-11.1c0,0.6-0.1,1.1-0.1,1.7c0,4.6,0.7,8.9,2.1,12.9c1.4,4,3.4,7.6,6,10.6c2.6,3,5.8,5.4,9.6,7.2
		c3.8,1.8,8,2.6,12.8,2.6c0.3,0,0.6,0,0.9,0V346c-0.3,0-0.6,0-0.9,0C539.7,346,536.8,345.3,534.3,344z"/>
	<polygon id="XMLID_648_" class="st0" points="232.4,419.5 238.3,402.6 227.3,402.6 220.8,419.5 	"/>
	<polygon id="XMLID_647_" class="st0" points="481.8,244.5 487.7,261.3 499.7,261.3 493.2,244.5 	"/>
	<rect id="XMLID_646_" x="922.7" y="496.5" class="st0" width="11.2" height="31.7"/>
	<rect id="XMLID_645_" x="913.5" y="319.1" class="st0" width="11.2" height="31.7"/>
	<rect id="XMLID_644_" x="1043.8" y="319.3" class="st0" width="11.2" height="31.7"/>
	<rect id="XMLID_643_" x="485.2" y="397.8" class="st0" width="11.2" height="31.7"/>
	<path id="XMLID_642_" class="st0" d="M1028.5,577.7c-2.4-1.8-5.2-3.2-8.4-4.1c-3.2-0.9-6.6-1.3-10.3-1.3c-3.1,0-6.2,0.4-9.3,1.1
		c-3,0.7-5.7,1.9-8.1,3.5c-2.4,1.6-4.3,3.7-5.8,6.2c-1.5,2.5-2.2,5.6-2.2,9.1c0,0.9,0.1,1.8,0.2,2.7h11.7c-0.5-1.1-0.8-2.4-0.8-4
		c0-1.2,0.2-2.4,0.7-3.5c0.5-1.2,1.2-2.2,2.3-3.1c1.1-0.9,2.5-1.6,4.2-2.2c1.7-0.6,3.8-0.8,6.3-0.8c2.3,0,4.4,0.3,6.3,0.8
		c1.9,0.5,3.7,1.3,5.1,2.4c1.5,1.1,2.7,2.5,3.5,4.2c0.8,1.7,1.2,3.8,1.2,6.2h11.2c-0.1-3.9-0.8-7.3-2.2-10.2
		C1032.8,581.9,1030.9,579.5,1028.5,577.7z"/>
	<path id="XMLID_641_" class="st0" d="M679,508.3c0.3,0.9,0.5,1.8,0.5,2.9c0,1.6-0.4,2.9-1.1,4c-0.7,1.1-1.7,1.9-2.8,2.5
		c-1.1,0.6-2.4,1.1-3.7,1.3c-1.4,0.3-2.7,0.4-4,0.4c-3.9,0-7.1-0.8-9.6-2.5c-2.5-1.7-3.9-4.6-4.2-8.7h-11.2c0,3.3,0.7,6.3,2,8.8
		c1.3,2.5,3.1,4.7,5.3,6.4c2.2,1.7,4.8,3,7.8,3.9c3,0.9,6.1,1.3,9.4,1.3c2.9,0,5.7-0.4,8.5-1.1c2.8-0.7,5.3-1.9,7.5-3.4
		c2.2-1.6,4-3.5,5.3-5.8c1.3-2.4,2-5.1,2-8.3c0-0.5,0-1.1-0.1-1.6H679z"/>
	<path id="XMLID_640_" class="st0" d="M334.2,240.1c1,1.5,2.3,2.8,3.9,3.9c1.6,1.1,3.4,2,5.4,2.7c0.8,0.2,2.2,0.6,4.2,1.1
		c1.9,0.5,3.9,1,5.9,1.6c2,0.5,3.8,1,5.5,1.5c1.6,0.4,2.6,0.7,2.8,0.8c2.3,0.7,4.1,1.6,5.5,2.9c0.7,0.7,1.3,1.5,1.6,2.4h11.6
		c-0.1-1.1-0.3-2.2-0.6-3.3c-0.4-1.6-1.2-3.1-2.3-4.5c-1.1-1.4-2.5-2.7-4.3-3.9c-1.8-1.2-4.1-2.1-6.8-2.8c-4.4-1.2-8.1-2.2-11.1-2.9
		c-3-0.7-5.6-1.5-7.9-2.4c-1.3-0.5-2.5-1.3-3.6-2.5c-0.4-0.4-0.7-0.9-0.9-1.4l0,0h-11.7c0.1,0.8,0.3,1.5,0.5,2.3
		C332.4,237.1,333.1,238.7,334.2,240.1z"/>
	<polygon id="XMLID_639_" class="st0" points="427.9,61 427.9,-2.7 417.2,-2.7 417.2,44.1 417,44.1 402,20 402,38.3 416.1,61 	"/>
	<polygon id="XMLID_638_" class="st0" points="280.7,342.8 280.7,324.4 266.6,301.7 254.8,301.7 254.8,365.4 265.5,365.4 
		265.5,318.5 265.6,318.5 	"/>
	<polygon id="XMLID_637_" class="st0" points="901.7,226.8 890.5,226.8 890.5,243.5 855.8,243.5 855.8,253.1 901.7,253.1 	"/>
	<polygon id="XMLID_636_" class="st0" points="261,152.2 296.4,152.2 296.4,170.9 264.3,170.9 264.3,180 296.4,180 307.6,180 
		307.6,142.6 261,142.6 	"/>
	<rect id="XMLID_635_" x="347.6" y="71.6" class="st0" width="11.2" height="26.1"/>
	<path id="XMLID_634_" class="st0" d="M804,310.5h-11.2v0.1h-16.4c-0.9,0-1.8-0.1-2.6-0.1h-0.1v8.7c0.3,0,0.6,0,0.9,0h18.3v19.9
		h-18.1c-0.4,0-0.7,0-1.1,0v9.1H804V310.5z"/>
	<path id="XMLID_633_" class="st0" d="M633,427.8v-8.7h0.1c-1.4-0.2-2.6-0.4-3.7-0.8c-1.6-0.7-2.9-1.7-3.9-3.1c-1-1.4-1.6-3.2-2-5.3
		c-0.4-2.1-0.5-4.6-0.5-7.5c0-1.6-0.1-3.1-0.2-4.8c-0.1-1.7-0.6-3.2-1.5-4.6h-12c1.2,1.3,2.1,3.5,2.6,6.6c0.6,3.1,0.9,6.5,0.9,10.2
		c0,2.5,0.3,4.6,0.9,6.2c0.6,1.7,1.4,3,2.4,4.1c1,1,2,1.8,3.1,2.3c1.1,0.5,2.1,0.8,3.1,0.9v0.2c-0.5,0.2-1.4,0.5-2.5,1.1
		c-1.2,0.5-2.3,1.4-3.5,2.6c-1.2,1.2-2.2,2.8-3.1,4.8c-0.9,2-1.3,4.5-1.3,7.5c0,5.4,1.8,9.6,5.3,12.7c3.5,3,8.8,4.6,15.8,4.6h0.1
		v-9.1c-1.1,0-2.1-0.1-3.1-0.3c-1.3-0.2-2.5-0.7-3.6-1.4c-1-0.7-1.9-1.7-2.5-3c-0.6-1.3-0.9-2.9-0.9-4.9c0-3.4,0.9-5.9,2.8-7.6
		C627.5,428.8,629.9,427.9,633,427.8z"/>
	<path id="XMLID_632_" class="st0" d="M238.8,244.8h-17c0.1-2.7,0.5-5.1,1.2-7.3c0.8-2.2,1.9-4.1,3.4-5.6c1.5-1.5,3.4-2.7,5.6-3.5
		c2-0.7,4.2-1.1,6.7-1.1v-9.1c-3.5,0.1-6.6,0.7-9.4,1.9c-3,1.3-5.9,3.7-8.9,7.1l-1.7-7.5h-7.1v33.6h27.1V244.8z"/>
	<path id="XMLID_631_" class="st0" d="M160.4,492.1c-0.7,2.9-1.9,5.5-3.4,7.8c-1.5,2.3-3.6,4.1-6,5.5c-2.5,1.4-5.4,2.1-8.8,2.1
		c-2,0-4-0.3-5.8-0.8c-1.8-0.5-3.5-1.3-5-2.4c-1.5-1.1-2.7-2.4-3.7-4c-1-1.6-1.6-3.4-1.9-5.5h-10.9c0.4,3.6,1.4,6.7,3,9.5
		c1.6,2.7,3.6,5,6.1,6.8c2.4,1.8,5.2,3.2,8.3,4.1c3.1,0.9,6.4,1.4,9.9,1.4c4.8,0,9-0.9,12.8-2.7c3.8-1.8,7-4.2,9.6-7.2
		c2.6-3,4.6-6.6,6-10.6c1.2-3.5,1.9-7.3,2-11.2h-11.1C161.4,487.4,161,489.8,160.4,492.1z"/>
	<path id="XMLID_630_" class="st0" d="M809.3,147.6c-2.6-3-5.8-5.4-9.6-7.2c-3.8-1.8-8.1-2.6-12.8-2.6c-0.3,0-0.6,0-0.9,0v9.1
		c0.3,0,0.6,0,0.9,0c3.4,0,6.3,0.7,8.8,2.1c2.5,1.4,4.5,3.2,6,5.5c1.5,2.3,2.7,4.9,3.4,7.8c0.7,2.9,1.1,5.9,1.1,8.9
		c0,0.6,0,1.1-0.1,1.7h11.1c0-0.6,0.1-1.1,0.1-1.7c0-4.6-0.7-8.9-2.1-12.9C813.9,154.2,811.9,150.7,809.3,147.6z"/>
	<polygon id="XMLID_629_" class="st0" points="1055.2,14.2 1066.2,14.2 1072.7,-2.7 1061.2,-2.7 	"/>
	<path id="XMLID_626_" class="st0" d="M1000.5,400.3h-11.4l18.1,46.9h11.9l18-46.9h-11H1000.5z M1013.3,436.1h-0.3l-9.6-27.4h19.5
		L1013.3,436.1z"/>
	<polygon id="XMLID_625_" class="st0" points="265.5,503.2 272,520 283.5,520 277.5,503.2 	"/>
	<rect id="XMLID_624_" x="732.2" y="248.2" class="st0" width="31.7" height="11.2"/>
	<rect id="XMLID_623_" x="1173.9" y="510.3" class="st0" width="31.7" height="11.2"/>
	<rect id="XMLID_622_" x="139.5" y="-2.7" class="st0" width="31.7" height="11.2"/>
	<rect id="XMLID_621_" x="139.1" y="147" class="st0" width="31.7" height="11.2"/>
	<path id="XMLID_620_" class="st0" d="M359.2,432.7c-1.1,1.5-2.5,2.6-4.2,3.5c-1.7,0.8-3.8,1.2-6.2,1.2v11.2
		c3.9-0.1,7.3-0.8,10.2-2.2c2.9-1.4,5.2-3.3,7.1-5.7c1.8-2.4,3.2-5.2,4.1-8.4c0.9-3.2,1.3-6.6,1.3-10.3c0-3.2-0.4-6.2-1.1-9.3
		c-0.7-3-1.9-5.7-3.5-8.1c-1.6-2.4-3.7-4.3-6.2-5.8c-2.5-1.5-5.6-2.2-9.1-2.2c-0.9,0-1.8,0.1-2.7,0.2v11.7c1.1-0.5,2.4-0.8,4-0.8
		c1.2,0,2.4,0.2,3.5,0.7c1.2,0.5,2.2,1.2,3.1,2.3c0.9,1.1,1.6,2.5,2.2,4.2c0.6,1.7,0.8,3.8,0.8,6.2c0,2.3-0.3,4.4-0.8,6.3
		C361.2,429.5,360.3,431.2,359.2,432.7z"/>
	<path id="XMLID_619_" class="st0" d="M417.1,472.5c-0.8,0.1-1.5,0.3-2.3,0.5c-1.7,0.5-3.2,1.3-4.7,2.3c-1.5,1-2.8,2.3-3.9,3.9
		c-1.1,1.5-2,3.4-2.7,5.4c-0.2,0.8-0.6,2.2-1.1,4.2c-0.5,1.9-1,3.9-1.6,5.9c-0.5,2-1,3.8-1.5,5.5c-0.4,1.6-0.7,2.6-0.8,2.8
		c-0.7,2.3-1.6,4.1-2.9,5.5c-0.7,0.7-1.5,1.3-2.4,1.6v11.6c1.1-0.1,2.2-0.3,3.3-0.6c1.6-0.4,3.1-1.2,4.6-2.3
		c1.4-1.1,2.7-2.5,3.9-4.3c1.2-1.8,2.1-4.1,2.8-6.8c1.2-4.4,2.2-8.1,2.9-11.1c0.7-3,1.5-5.6,2.4-7.9c0.5-1.3,1.3-2.5,2.5-3.6
		c0.4-0.4,0.9-0.7,1.4-0.9h0V472.5z"/>
	<polygon id="XMLID_618_" class="st0" points="779,97 732.2,97 732.2,96.7 756.3,81.8 738,81.8 715.3,95.8 715.3,107.6 779,107.6 	
		"/>
	<polygon id="XMLID_617_" class="st0" points="585.4,579.7 632.3,579.7 632.3,579.9 608.1,594.9 626.4,594.9 649.1,580.9 
		649.1,569.1 585.4,569.1 	"/>
	<polygon id="XMLID_616_" class="st0" points="685.5,182.5 668.8,182.5 668.8,147.8 659.2,147.8 659.2,193.6 685.5,193.6 	"/>
	<polygon id="XMLID_612_" class="st0" points="233.1,583.8 214.4,583.8 214.4,551.6 205.3,551.6 205.3,583.8 205.3,594.9 
		242.7,594.9 242.7,548.4 233.1,548.4 	"/>
	<rect id="XMLID_611_" x="1128.5" y="583.8" class="st0" width="26.1" height="11.2"/>
	<path id="XMLID_610_" class="st0" d="M113.4,250h-0.1v-16.4c0-0.9,0.1-1.8,0.1-2.6v-0.1h-8.7c0,0.3,0,0.6,0,0.9V250H84.9v-18.1
		c0-0.4,0-0.7,0-1.1h-9.1v30.3h37.6V250z"/>
	<path id="XMLID_609_" class="st0" d="M110.2,319.6c-3,3.5-4.5,8.8-4.5,15.8v0.1h9.1c0-1.1,0.1-2.1,0.3-3.1c0.2-1.3,0.7-2.5,1.4-3.6
		c0.7-1,1.7-1.9,3-2.5c1.3-0.6,2.9-0.9,4.9-0.9c3.4,0,5.9,0.9,7.6,2.8c1.6,1.7,2.4,4.1,2.5,7.2h8.7v0.1c0.1-1.4,0.4-2.6,0.8-3.7
		c0.7-1.6,1.7-2.9,3.1-3.9c1.4-1,3.2-1.6,5.3-2c2.1-0.4,4.6-0.5,7.5-0.5c1.6,0,3.2-0.1,4.8-0.2c1.7-0.1,3.2-0.6,4.6-1.5v-12
		c-1.3,1.2-3.5,2.1-6.6,2.6c-3.1,0.6-6.5,0.8-10.2,0.8c-2.5,0-4.6,0.3-6.2,0.9c-1.7,0.6-3,1.4-4.1,2.4c-1,1-1.8,2-2.3,3.1
		c-0.5,1.1-0.8,2.1-0.9,3.1h-0.2c-0.2-0.5-0.5-1.4-1.1-2.5c-0.5-1.2-1.4-2.3-2.6-3.5c-1.2-1.2-2.8-2.2-4.8-3.1
		c-2-0.9-4.5-1.3-7.5-1.3C117.4,314.3,113.2,316.1,110.2,319.6z"/>
	<path id="XMLID_608_" class="st0" d="M888,576.6l7.5-1.7v-7.1h-33.6v27.1h8.5v-17c2.7,0.1,5.1,0.5,7.3,1.3c2.2,0.8,4.1,1.9,5.6,3.4
		c1.5,1.5,2.7,3.4,3.5,5.6c0.7,2,1.1,4.2,1.1,6.7h9.1c-0.1-3.5-0.7-6.6-1.9-9.4C893.7,582.6,891.3,579.6,888,576.6z"/>
	<path id="XMLID_592_" class="st0" d="M1190.6,183.6c-2.3-1.5-4.1-3.6-5.5-6c-1.4-2.5-2-5.4-2-8.8c0-2,0.3-4,0.8-5.8
		c0.5-1.8,1.3-3.5,2.4-5c1.1-1.5,2.4-2.7,4-3.7c1.6-1,3.4-1.6,5.5-1.9v-10.9c-3.6,0.4-6.7,1.4-9.5,3c-2.7,1.6-5,3.6-6.8,6.1
		c-1.8,2.4-3.2,5.2-4.1,8.3c-0.9,3.1-1.4,6.4-1.4,9.9c0,4.8,0.9,9,2.7,12.8c1.8,3.8,4.2,7,7.2,9.6c3,2.6,6.6,4.6,10.6,6
		c3.5,1.2,7.3,1.9,11.2,2v-11.1c-2.4-0.1-4.9-0.5-7.2-1.1C1195.5,186.3,1192.9,185.1,1190.6,183.6z"/>
	<path id="XMLID_591_" class="st0" d="M942.6-2.7c0,0.3,0,0.6,0,0.9c0,3.4-0.7,6.3-2,8.8c-1.4,2.5-3.2,4.5-5.5,6
		c-2.3,1.5-4.9,2.7-7.8,3.4c-2.9,0.7-5.9,1.1-8.9,1.1c-0.6,0-1.1,0-1.7-0.1v11.1c0.6,0,1.1,0.1,1.7,0.1c4.6,0,8.9-0.7,12.9-2.1
		c4-1.4,7.6-3.4,10.6-6c3-2.6,5.4-5.8,7.2-9.6c1.8-3.8,2.6-8,2.6-12.8c0-0.3,0-0.6,0-0.9H942.6z"/>
	<polygon id="XMLID_590_" class="st0" points="1264.2,588.5 1281.1,594.9 1281.1,583.4 1264.2,577.4 	"/>
	<path id="XMLID_587_" class="st0" d="M521.3,27.2l46.9,18v-11V8.7V-2.7l-46.9,18.1V27.2z M532.3,21.2l27.4-9.5v19.5l-27.4-9.6V21.2
		z"/>
	<polygon id="XMLID_586_" class="st0" points="667,332.8 650.1,339.3 650.1,350.7 667,344.7 	"/>
	<rect id="XMLID_585_" x="788.5" y="-2.7" class="st0" width="31.7" height="11.2"/>
	<rect id="XMLID_584_" x="468.6" y="92.2" class="st0" width="31.7" height="11.2"/>
	<rect id="XMLID_583_" x="77.1" y="583.8" class="st0" width="31.7" height="11.2"/>
	<path id="XMLID_582_" class="st0" d="M7.1,498.5c-1.8,2.4-3.2,5.2-4.1,8.4c-0.9,3.2-1.3,6.6-1.3,10.3c0,3.2,0.4,6.2,1.1,9.3
		c0.7,3,1.9,5.7,3.5,8.1c1.6,2.4,3.7,4.3,6.2,5.8c2.5,1.5,5.6,2.2,9.1,2.2c0.9,0,1.8-0.1,2.7-0.2v-11.7c-1.1,0.5-2.4,0.7-4,0.7
		c-1.2,0-2.4-0.2-3.5-0.7c-1.2-0.5-2.2-1.2-3.1-2.3c-0.9-1.1-1.6-2.5-2.2-4.2c-0.6-1.7-0.8-3.8-0.8-6.2c0-2.3,0.3-4.4,0.8-6.3
		c0.5-1.9,1.3-3.7,2.4-5.1c1.1-1.5,2.5-2.7,4.2-3.5c1.7-0.8,3.8-1.2,6.2-1.2v-11.2c-3.9,0.1-7.3,0.8-10.2,2.2
		C11.3,494.2,8.9,496.1,7.1,498.5z"/>
	<path id="XMLID_581_" class="st0" d="M679.5,37.8c1.7-2.2,3-4.8,3.9-7.8c0.9-2.9,1.3-6.1,1.3-9.4c0-2.9-0.4-5.7-1.1-8.5
		c-0.7-2.8-1.9-5.3-3.4-7.5c-1.5-2.2-3.5-4-5.8-5.3c-2.4-1.3-5.1-2-8.3-2c-0.5,0-1.1,0-1.6,0.1V8.9c0.9-0.3,1.8-0.5,2.9-0.5
		c1.6,0,2.9,0.4,4,1.1c1.1,0.7,1.9,1.7,2.5,2.8c0.6,1.1,1.1,2.4,1.3,3.7c0.3,1.4,0.4,2.7,0.4,4c0,3.9-0.8,7-2.5,9.5
		c-1.7,2.5-4.6,3.9-8.7,4.2V45c3.3,0,6.3-0.7,8.8-2C675.7,41.8,677.8,40,679.5,37.8z"/>
	<path id="XMLID_580_" class="st0" d="M213.4,109.2c0.8-0.1,1.5-0.3,2.3-0.5c1.7-0.5,3.2-1.3,4.7-2.3c1.5-1,2.8-2.3,3.9-3.9
		c1.1-1.5,2-3.4,2.7-5.4c0.2-0.8,0.6-2.2,1.1-4.2c0.5-1.9,1-3.9,1.6-5.9c0.5-2,1-3.9,1.5-5.5c0.4-1.6,0.7-2.6,0.8-2.8
		c0.7-2.3,1.6-4.1,2.9-5.5c0.7-0.7,1.4-1.2,2.4-1.6V60c-1.1,0.1-2.2,0.3-3.3,0.6c-1.6,0.5-3.1,1.2-4.6,2.3c-1.4,1.1-2.7,2.5-3.9,4.3
		c-1.2,1.8-2.1,4.1-2.8,6.8c-1.2,4.4-2.2,8.1-2.9,11.1c-0.7,3-1.5,5.6-2.4,7.9c-0.5,1.3-1.3,2.5-2.5,3.6c-0.4,0.4-0.9,0.7-1.4,0.9h0
		V109.2z"/>
	<polygon id="XMLID_579_" class="st0" points="850.6,416.9 897.5,416.9 897.5,417.2 873.3,432.1 891.6,432.1 914.3,418.1 
		914.3,406.3 850.6,406.3 	"/>
	<polygon id="XMLID_578_" class="st0" points="917.9,151.4 934.6,151.4 934.6,186.2 944.2,186.2 944.2,140.3 917.9,140.3 	"/>
	<polygon id="XMLID_577_" class="st0" points="1131,232.9 1149.7,232.9 1149.7,265 1158.8,265 1158.8,232.9 1158.8,221.7 
		1121.4,221.7 1121.4,268.2 1131,268.2 	"/>
	<rect id="XMLID_576_" x="735.3" y="583.8" class="st0" width="26.1" height="11.2"/>
	<path id="XMLID_575_" class="st0" d="M387.8,326.1h19.9v18.1c0,0.4,0,0.7,0,1.1h9.1V315h-37.6v11.2h0.1v16.4c0,0.9-0.1,1.8-0.1,2.6
		v0.1h8.7c0-0.3,0-0.6,0-0.9V326.1z"/>
	<path id="XMLID_572_" class="st0" d="M1031.8,238.1c-0.2,1.3-0.7,2.5-1.4,3.6c-0.7,1-1.7,1.9-3,2.5c-1.3,0.6-2.9,0.9-4.9,0.9
		c-3.4,0-5.9-0.9-7.6-2.8c-1.6-1.7-2.4-4.1-2.5-7.2h-8.7v-0.1c-0.1,1.4-0.4,2.7-0.8,3.7c-0.7,1.6-1.7,2.9-3.1,3.9
		c-1.4,0.9-3.1,1.6-5.3,2c-2.1,0.4-4.6,0.5-7.5,0.5c-1.6,0-3.2,0.1-4.8,0.2c-1.7,0.1-3.2,0.6-4.6,1.5v12c1.3-1.2,3.5-2.1,6.6-2.6
		c3.1-0.6,6.5-0.8,10.2-0.8c2.5,0,4.6-0.3,6.2-0.9c1.7-0.6,3-1.4,4.1-2.4c1-1,1.8-2,2.3-3.1c0.5-1.1,0.8-2.1,0.9-3.1h0.2
		c0.2,0.5,0.5,1.4,1.1,2.5c0.5,1.2,1.4,2.3,2.6,3.5c1.2,1.2,2.8,2.2,4.8,3.1c2,0.9,4.5,1.3,7.5,1.3c5.4,0,9.6-1.8,12.7-5.3
		c3-3.5,4.6-8.8,4.6-15.8V235h-9.1C1032.1,236,1032,237.1,1031.8,238.1z"/>
	<path id="XMLID_571_" class="st0" d="M422.7,152.5c-2.7-0.1-5.1-0.5-7.3-1.3c-2.2-0.8-4.1-1.9-5.6-3.4c-1.5-1.5-2.7-3.4-3.5-5.6
		c-0.7-2-1.1-4.2-1.1-6.7h-9.1c0.1,3.5,0.7,6.6,1.9,9.4c1.3,3,3.7,6,7.1,8.9l-7.5,1.7v7.1h33.6v-27.1h-8.5V152.5z"/>
	<path id="XMLID_570_" class="st0" d="M1149.5,404.9c-3-2.6-6.6-4.6-10.6-6c-3.5-1.2-7.3-1.9-11.2-2V408c2.4,0.1,4.9,0.5,7.2,1.1
		c2.9,0.7,5.5,1.9,7.8,3.4c2.3,1.6,4.1,3.6,5.5,6c1.4,2.5,2.1,5.4,2.1,8.8c0,2-0.3,4-0.8,5.8c-0.5,1.8-1.3,3.5-2.4,5
		c-1.1,1.5-2.4,2.7-4,3.7c-1.6,1-3.4,1.6-5.5,1.9v10.9c3.6-0.4,6.7-1.4,9.5-3c2.7-1.6,5-3.6,6.8-6.1c1.8-2.4,3.2-5.2,4.1-8.3
		c0.9-3.1,1.4-6.4,1.4-9.9c0-4.8-0.9-9-2.7-12.8C1155,410.7,1152.6,407.5,1149.5,404.9z"/>
	<path id="XMLID_567_" class="st0" d="M800.4,495.4c-4,1.4-7.6,3.4-10.6,6c-3,2.6-5.4,5.8-7.2,9.6c-1.8,3.8-2.6,8.1-2.6,12.8
		c0,0.3,0,0.6,0,0.9h9.1c0-0.3,0-0.6,0-0.9c0-3.4,0.7-6.3,2-8.8c1.4-2.5,3.2-4.5,5.5-6c2.3-1.5,4.9-2.7,7.8-3.4
		c2.9-0.7,5.9-1.1,8.9-1.1c0.6,0,1.1,0,1.7,0.1v-11.1c-0.6,0-1.1-0.1-1.7-0.1C808.8,493.3,804.5,494,800.4,495.4z"/>
	<polygon id="XMLID_566_" class="st0" points="886.9,75.6 870.1,69.1 870.1,80.6 886.9,86.6 	"/>
	<polygon id="XMLID_565_" class="st0" points="1264.2,91.9 1264.2,103.8 1281.1,97.3 1281.1,85.9 	"/>
	<path id="XMLID_486_" class="st0" d="M1234.2,234.2v25.4v11.4l46.9-18v-11.9l-46.9-18V234.2z M1242.7,237.2l27.4,9.6v0.3l-27.4,9.5
		V237.2z"/>
	<polygon id="XMLID_485_" class="st0" points="1174.7,15.1 1199,0.1 1180.6,0.1 1157.9,14.1 1157.9,25.9 1221.6,25.9 1221.6,15.3 
		1174.7,15.3 	"/>
</g>
</svg>
